<?xml version="1.0" encoding="UTF-8" standalone="no"?>
<!-- Generator: Adobe Illustrator 18.0.0, SVG Export Plug-In . SVG Version: 6.00 Build 0)  -->

<svg
   xmlns:dc="http://purl.org/dc/elements/1.1/"
   xmlns:cc="http://creativecommons.org/ns#"
   xmlns:rdf="http://www.w3.org/1999/02/22-rdf-syntax-ns#"
   xmlns:svg="http://www.w3.org/2000/svg"
   xmlns="http://www.w3.org/2000/svg"
   xmlns:sodipodi="http://sodipodi.sourceforge.net/DTD/sodipodi-0.dtd"
   xmlns:inkscape="http://www.inkscape.org/namespaces/inkscape"
   version="1.1"
   id="Capa_1"
   x="0px"
   y="0px"
   viewBox="0 0 68.67 68.67"
   style="enable-background:new 0 0 68.67 68.67;"
   xml:space="preserve"
   sodipodi:docname="students.svg"
   inkscape:version="0.92.2 2405546, 2018-03-11"><metadata
   id="metadata39"><rdf:RDF><cc:Work
       rdf:about=""><dc:format>image/svg+xml</dc:format><dc:type
         rdf:resource="http://purl.org/dc/dcmitype/StillImage" /></cc:Work></rdf:RDF></metadata><defs
   id="defs37" /><sodipodi:namedview
   pagecolor="#ffffff"
   bordercolor="#666666"
   borderopacity="1"
   objecttolerance="10"
   gridtolerance="10"
   guidetolerance="10"
   inkscape:pageopacity="0"
   inkscape:pageshadow="2"
   inkscape:window-width="1600"
   inkscape:window-height="876"
   id="namedview35"
   showgrid="false"
   inkscape:zoom="3.4367265"
   inkscape:cx="34.334999"
   inkscape:cy="34.334999"
   inkscape:window-x="0"
   inkscape:window-y="24"
   inkscape:window-maximized="1"
   inkscape:current-layer="Capa_1" />
<path
   style="fill:#ffffff;fill-opacity:1"
   d="M45.879,29.263c2.142-2.318,3.463-5.406,3.463-8.804V13c0-7.168-5.832-13-13-13h-4.011  c-7.168,0-13,5.832-13,13v7.458c0,3.398,1.321,6.485,3.463,8.804C5.844,35.174,4.504,53.673,4.49,53.925  c0,8.269,13.109,14.746,29.846,14.746s29.847-6.477,29.845-14.807C64.168,53.67,62.827,35.174,45.879,29.263z M34.336,53.797  c1.63,0,2.955,1.325,2.955,2.955c0,1.629-1.325,2.954-2.955,2.954c-1.629,0-2.954-1.325-2.954-2.954  C31.382,55.122,32.707,53.797,34.336,53.797z M34.336,37.438c-1.846,0-5.086-1.363-5.888-4.572c1.227,0.385,2.531,0.593,3.883,0.593  h4.011c1.352,0,2.656-0.208,3.883-0.593C39.423,36.074,36.182,37.438,34.336,37.438z M34.336,10.521  c-1.355,0-2.458-1.103-2.458-2.458s1.103-2.458,2.458-2.458s2.459,1.103,2.459,2.458S35.691,10.521,34.336,10.521z M34.333,12.656  c4.322,0,8.643-0.298,12.938-0.869c0.044,0.399,0.071,0.803,0.071,1.214v7.458c0,0.016-0.002,0.031-0.002,0.047l-4.525,1.766H25.858  l-4.525-1.766c0-0.016-0.002-0.031-0.002-0.046V13c0-0.41,0.027-0.814,0.071-1.213C25.695,12.358,30.013,12.656,34.333,12.656z   M36.342,31.458h-4.011c-2.072,0-4.005-0.586-5.661-1.586v-5.602h15.333v5.602C40.346,30.872,38.413,31.458,36.342,31.458z   M44.003,23.954l3.096-1.208c-0.461,2.168-1.563,4.099-3.096,5.591V23.954z M24.67,23.954v4.382  c-1.534-1.492-2.636-3.423-3.096-5.591L24.67,23.954z M32.331,2h4.011c4.96,0,9.16,3.301,10.527,7.821  c-2.944,0.388-5.9,0.646-8.86,0.76c0.494-0.717,0.785-1.584,0.785-2.518c0-2.458-2-4.458-4.459-4.458c-2.458,0-4.458,2-4.458,4.458  c0,0.935,0.292,1.801,0.786,2.519c-2.96-0.113-5.916-0.372-8.86-0.759C23.17,5.302,27.37,2,32.331,2z M54.325,62.694V52.335  c0-0.552-0.447-1-1-1s-1,0.448-1,1v11.225c-4.894,1.927-11.202,3.11-17.989,3.11c-6.795,0-13.111-1.186-18.007-3.111V52.335  c0-0.552-0.447-1-1-1s-1,0.448-1,1v10.358c-4.825-2.296-7.84-5.381-7.841-8.706c0.047-0.748,1.35-18.125,18.017-23.173  c0.566,0.429,1.162,0.817,1.795,1.15c0.355,4.956,4.761,7.202,7.536,7.447v13.435c-1.943,0.249-3.454,1.895-3.454,3.904  c0,2.18,1.773,3.954,3.954,3.954s3.955-1.774,3.955-3.954c0-2.009-1.512-3.655-3.455-3.904V39.412  c2.776-0.245,7.182-2.492,7.537-7.447c0.632-0.333,1.229-0.721,1.795-1.15c16.667,5.047,17.97,22.423,18.016,23.11  C62.182,57.285,59.16,60.389,54.325,62.694z M26.926,46.325h-7.25c-0.276,0-0.5,0.224-0.5,0.5s0.224,0.5,0.5,0.5h3.125v1.188h-2.464  c-0.276,0-0.5,0.224-0.5,0.5v8.833c0,0.276,0.224,0.5,0.5,0.5h5.928c0.276,0,0.5-0.224,0.5-0.5v-8.833c0-0.276-0.224-0.5-0.5-0.5  h-2.464v-1.188h3.125c0.276,0,0.5-0.224,0.5-0.5S27.202,46.325,26.926,46.325z M25.764,57.346h-4.928v-7.833h4.928V57.346z   M32.654,56.751c0-0.929,0.753-1.682,1.682-1.682s1.682,0.753,1.682,1.682s-0.753,1.682-1.682,1.682S32.654,57.68,32.654,56.751z"
   id="path2" />
<g
   id="g4">
</g>
<g
   id="g6">
</g>
<g
   id="g8">
</g>
<g
   id="g10">
</g>
<g
   id="g12">
</g>
<g
   id="g14">
</g>
<g
   id="g16">
</g>
<g
   id="g18">
</g>
<g
   id="g20">
</g>
<g
   id="g22">
</g>
<g
   id="g24">
</g>
<g
   id="g26">
</g>
<g
   id="g28">
</g>
<g
   id="g30">
</g>
<g
   id="g32">
</g>
</svg>