<?xml version="1.0" encoding="UTF-8" standalone="no"?>
<svg
   xmlns:dc="http://purl.org/dc/elements/1.1/"
   xmlns:cc="http://creativecommons.org/ns#"
   xmlns:rdf="http://www.w3.org/1999/02/22-rdf-syntax-ns#"
   xmlns:svg="http://www.w3.org/2000/svg"
   xmlns="http://www.w3.org/2000/svg"
   xmlns:sodipodi="http://sodipodi.sourceforge.net/DTD/sodipodi-0.dtd"
   xmlns:inkscape="http://www.inkscape.org/namespaces/inkscape"
   id="svg4606"
   version="1.1"
   height="114.92928"
   width="456.57513"
   sodipodi:docname="medc.svg"
   inkscape:version="0.92.2 2405546, 2018-03-11">
  <sodipodi:namedview
     pagecolor="#ffffff"
     bordercolor="#666666"
     borderopacity="1"
     objecttolerance="10"
     gridtolerance="10"
     guidetolerance="10"
     inkscape:pageopacity="0"
     inkscape:pageshadow="2"
     inkscape:window-width="1600"
     inkscape:window-height="876"
     id="namedview824"
     showgrid="false"
     inkscape:zoom="2.3106821"
     inkscape:cx="228.28757"
     inkscape:cy="57.464642"
     inkscape:window-x="0"
     inkscape:window-y="24"
     inkscape:window-maximized="1"
     inkscape:current-layer="g4602" />
  <metadata
     id="metadata4612">
    <rdf:RDF>
      <cc:Work
         rdf:about="">
        <dc:format>image/svg+xml</dc:format>
        <dc:type
           rdf:resource="http://purl.org/dc/dcmitype/StillImage" />
        <dc:title />
      </cc:Work>
    </rdf:RDF>
  </metadata>
  <defs
     id="defs4610" />
  <g
     transform="translate(-283.71243,-326.53536)"
     style="text-anchor:middle"
     id="g4604">
    <g
       id="g4602"
       style="font-weight:700;font-size:72px;line-height:1;font-family:Lato;font-variant-ligatures:none;text-align:center;fill:#dbdbdb"
       font-weight="700"
       font-size="72"
       aria-label="MEDC">
      <path
         id="path4594"
         style="line-height:1;font-variant-ligatures:none;text-align:center;fill:#ffffff"
         d="m 405.64013,327.77952 v 112.44096 h -18.42914 v -72.62784 q 0,-4.35456 0.46656,-9.40896 l -33.9811,63.84096 q -2.41058,4.58784 -7.38722,4.58784 h -2.95486 q -4.97666,0 -7.38722,-4.58784 l -34.3699,-64.07424 q 0.23328,2.56608 0.38878,5.0544 0.15552,2.48832 0.15552,4.58784 v 72.62784 H 283.71243 V 327.77952 h 15.78528 q 1.39968,0 2.41058,0.0778 1.01086,0.0778 1.78846,0.3888 0.85538,0.31104 1.47744,1.01088 0.69984,0.69984 1.32192,1.86624 l 33.6701,62.44128 q 1.3219,2.48832 2.41054,5.13216 1.16642,2.64384 2.25504,5.4432 1.08864,-2.87712 2.25504,-5.52096 1.1664,-2.7216 2.48832,-5.20992 l 33.20354,-62.28576 q 0.62206,-1.1664 1.3219,-1.86624 0.69984,-0.69984 1.47746,-1.01088 0.85534,-0.31104 1.86622,-0.3888 1.01088,-0.0778 2.41056,-0.0778 z" />
      <path
         id="path4596"
         style="line-height:1;font-variant-ligatures:none;text-align:center;fill:#ffffff"
         d="m 456.25865,344.42016 v 31.18176 h 39.34654 v 16.09632 h -39.34654 v 31.80384 h 49.92192 v 16.7184 H 435.26343 V 327.77952 h 70.91714 v 16.64064 z" />
      <path
         id="path4598"
         style="line-height:1;font-variant-ligatures:none;text-align:center;fill:#ffffff"
         d="m 628.94577,384 q 0,12.36384 -4.12128,22.70592 -4.12128,10.34208 -11.58622,17.80704 -7.46496,7.46496 -17.96256,11.58624 -10.49762,4.12128 -23.32802,4.12128 H 529.10195 V 327.77952 h 42.84574 q 12.8304,0 23.32802,4.19904 10.4976,4.12128 17.96256,11.58624 7.46494,7.3872 11.58622,17.72928 4.12128,10.34208 4.12128,22.70592 z m -21.46174,0 q 0,-9.25344 -2.48832,-16.56288 -2.41056,-7.3872 -7.07618,-12.4416 -4.58782,-5.13216 -11.19744,-7.85376 -6.53184,-2.7216 -14.7744,-2.7216 h -21.85056 v 79.15968 h 21.85056 q 8.24256,0 14.7744,-2.7216 6.60962,-2.7216 11.19744,-7.776 4.66562,-5.13216 7.07618,-12.4416 2.48832,-7.3872 2.48832,-16.64064 z" />
      <path
         id="path4600"
         style="line-height:1;font-variant-ligatures:none;text-align:center;fill:#ffffff"
         d="m 729.01237,413.70432 q 1.71072,0 3.03264,1.32192 l 8.24256,8.9424 q -6.84288,8.47584 -16.87392,12.98592 -9.95328,4.51008 -23.95008,4.51008 -12.51936,0 -22.5504,-4.2768 -9.95328,-4.2768 -17.02944,-11.89728 -7.07616,-7.62048 -10.8864,-18.19584 -3.73248,-10.57536 -3.73248,-23.09472 0,-12.67488 4.04352,-23.17248 4.04352,-10.57536 11.35296,-18.19584 7.3872,-7.62048 17.57376,-11.81952 10.18656,-4.2768 22.5504,-4.2768 12.28608,0 21.7728,4.04352 9.56448,4.04352 16.25184,10.57536 l -6.9984,9.72 q -0.62208,0.93312 -1.63296,1.63296 -0.93312,0.69984 -2.64384,0.69984 -1.1664,0 -2.41056,-0.62208 -1.24416,-0.69984 -2.7216,-1.63296 -1.47744,-1.01088 -3.42144,-2.17728 -1.944,-1.1664 -4.51008,-2.09952 -2.56608,-1.01088 -5.98752,-1.63296 -3.34368,-0.69984 -7.776,-0.69984 -7.54272,0 -13.84128,2.7216 -6.2208,2.64384 -10.73088,7.776 -4.51008,5.0544 -6.9984,12.4416 -2.48832,7.30944 -2.48832,16.7184 0,9.48672 2.64384,16.87392 2.7216,7.3872 7.30944,12.4416 4.58784,5.0544 10.80864,7.776 6.2208,2.64384 13.37472,2.64384 4.2768,0 7.69824,-0.46656 3.4992,-0.46656 6.37632,-1.47744 2.95488,-1.01088 5.52096,-2.56608 2.64384,-1.63296 5.20992,-3.96576 0.7776,-0.69984 1.63296,-1.08864 0.85536,-0.46656 1.78848,-0.46656 z" />
    </g>
  </g>
</svg>
